<svg id="Layer_1" data-name="Layer 1" xmlns="http://www.w3.org/2000/svg" width="71.45mm" height="20.21mm" viewBox="0 0 202.53 57.3"><defs><style>.cls-1{fill:#1d1d1b;}</style></defs><title>DT+_Logo_Stacked_Black</title><path class="cls-1" d="M140.37,107h9.79c9.07,0,14.32,5.22,14.32,12.55v0.07c0,7.33-5.33,12.76-14.47,12.76h-9.65V107Zm9.9,19.15c4.21,0,7-2.32,7-6.42v-0.07c0-4.06-2.79-6.42-7-6.42H147.4v12.91h2.86Z" transform="translate(-139.71 -106.51)"/><path class="cls-1" d="M168.25,107h7.07V132.4h-7.07V107Z" transform="translate(-139.71 -106.51)"/><path class="cls-1" d="M179.67,119.79v-0.07c0-7.4,5.8-13.2,13.67-13.2a14.81,14.81,0,0,1,10.3,3.7l-4.13,5a9,9,0,0,0-6.13-2.39,6.67,6.67,0,0,0-6.49,7v0.07a6.71,6.71,0,0,0,6.89,7,7.17,7.17,0,0,0,4.06-1.05v-3.08h-5v-5.15h11.68V129a17.17,17.17,0,0,1-11,3.92C185.58,132.91,179.67,127.47,179.67,119.79Z" transform="translate(-139.71 -106.51)"/><path class="cls-1" d="M210,107h7.07V132.4H210V107Z" transform="translate(-139.71 -106.51)"/><path class="cls-1" d="M228.52,113.19H220.9V107h22.27v6.16h-7.62V132.4h-7V113.19Z" transform="translate(-139.71 -106.51)"/><path class="cls-1" d="M251.84,106.84h6.78l10.81,25.57h-7.54L260,127.87h-9.79l-1.81,4.53H241ZM258,122.4l-2.83-7.22-2.86,7.22H258Z" transform="translate(-139.71 -106.51)"/><path class="cls-1" d="M272.61,107h7v19.22h9v6.16H272.61V107Z" transform="translate(-139.71 -106.51)"/><path class="cls-1" d="M165.31,138.42h7v9.5h9v-9.5h7v25.38h-7v-9.65h-9v9.65h-7V138.42Z" transform="translate(-139.71 -106.51)"/><path class="cls-1" d="M193.52,138.42h20.42v6H200.49v3.84h12.18v5.55H200.49v4h13.63v6h-20.6V138.42Z" transform="translate(-139.71 -106.51)"/><path class="cls-1" d="M227.1,138.24h6.78l10.81,25.57h-7.54l-1.85-4.53h-9.79l-1.81,4.53h-7.4Zm6.16,15.56-2.83-7.22-2.87,7.22h5.69Z" transform="translate(-139.71 -106.51)"/><path class="cls-1" d="M249.88,144.59h-7.62v-6.16h22.27v6.16h-7.61v19.22h-7V144.59Z" transform="translate(-139.71 -106.51)"/><path class="cls-1" d="M147.32,144.59h-7.62v-6.16H162v6.16h-7.61v19.22h-7V144.59Z" transform="translate(-139.71 -106.51)"/><path class="cls-1" d="M268.23,138.42h12c3.88,0,6.56,1,8.27,2.75a7.87,7.87,0,0,1,2.25,5.91v0.07a8,8,0,0,1-5.22,7.8l6.05,8.85h-8.12l-5.11-7.69h-3.08v7.69h-7V138.42Zm11.68,12.18c2.39,0,3.77-1.16,3.77-3v-0.07c0-2-1.45-3-3.81-3h-4.6v6.09h4.64Z" transform="translate(-139.71 -106.51)"/><path class="cls-1" d="M294.88,138.42H315.3v6H301.84v3.84H314v5.55H301.84v4h13.64v6h-20.6V138.42Z" transform="translate(-139.71 -106.51)"/><polygon class="cls-1" points="202.53 31.95 195.15 31.95 195.15 24.57 189.11 24.57 189.11 31.95 181.72 31.95 181.72 37.99 189.11 37.99 189.11 45.38 195.15 45.38 195.15 37.99 202.53 37.99 202.53 31.95"/></svg>